<svg xmlns="http://www.w3.org/2000/svg" viewBox="0 0 1024 1024" role="img" aria-labelledby="title desc">
  <title id="title">OpenFileTransfer 로고</title>
  <desc id="desc">상단 화살표는 우측에서 좌측으로, 하단 화살표는 좌측에서 우측으로 원형 흐름을 만드는 태극형 전송 아이콘</desc>
  <defs>
    <linearGradient id="bg" x1="168" x2="856" y1="116" y2="908" gradientUnits="userSpaceOnUse">
      <stop stop-color="#E9FFF6"/>
      <stop offset="1" stop-color="#BFEFD9"/>
    </linearGradient>
    <linearGradient id="upper" x1="820" x2="156" y1="264" y2="430" gradientUnits="userSpaceOnUse">
      <stop stop-color="#5ED6A3"/>
      <stop offset="1" stop-color="#2BBF8A"/>
    </linearGradient>
    <linearGradient id="lower" x1="204" x2="868" y1="760" y2="594" gradientUnits="userSpaceOnUse">
      <stop stop-color="#32BFA0"/>
      <stop offset="1" stop-color="#147D67"/>
    </linearGradient>
    <filter id="softShadow" x="-20%" y="-20%" width="140%" height="150%" color-interpolation-filters="sRGB">
      <feDropShadow dx="0" dy="26" stdDeviation="26" flood-color="#0B5F4C" flood-opacity="0.16"/>
      <feDropShadow dx="0" dy="4" stdDeviation="8" flood-color="#0B5F4C" flood-opacity="0.10"/>
    </filter>
  </defs>
  <rect width="1024" height="1024" rx="248" fill="url(#bg)"/>
  <circle cx="512" cy="512" r="350" fill="#F7FFFB" opacity="0.72"/>
  <g filter="url(#softShadow)">
    <path fill="none" stroke="url(#upper)" stroke-width="150" stroke-linecap="round" d="M806 356C676 192 396 183 225 382"/>
    <path fill="url(#upper)" d="M60 438c-34-34-10-92 38-92h140c48 0 72 58 38 92L206 508c-21 21-55 21-76 0L60 438Z"/>
    <path fill="none" stroke="url(#lower)" stroke-width="150" stroke-linecap="round" d="M218 668c130 164 410 173 581-26"/>
    <path fill="url(#lower)" d="M964 586c34 34 10 92-38 92H786c-48 0-72-58-38-92l70-70c21-21 55-21 76 0l70 70Z"/>
  </g>
  <circle cx="512" cy="512" r="92" fill="#EFFFF7"/>
  <circle cx="512" cy="512" r="92" fill="none" stroke="#0A5C4D" stroke-width="38"/>
</svg>
