<svg xmlns="http://www.w3.org/2000/svg" viewBox="0 0 1024 1024" role="img" aria-labelledby="title desc">
  <title id="title">OpenFileTransfer 로고</title>
  <desc id="desc">연한 초록색 둥근 배경 위에 위아래 화살표와 태극형 순환 흐름을 표현한 아이콘</desc>
  <defs>
    <linearGradient id="bg" x1="168" x2="856" y1="116" y2="908" gradientUnits="userSpaceOnUse">
      <stop stop-color="#E9FFF6"/>
      <stop offset="1" stop-color="#BFEFD9"/>
    </linearGradient>
    <linearGradient id="upper" x1="304" x2="728" y1="210" y2="596" gradientUnits="userSpaceOnUse">
      <stop stop-color="#2BBF8A"/>
      <stop offset="1" stop-color="#5ED6A3"/>
    </linearGradient>
    <linearGradient id="lower" x1="720" x2="300" y1="814" y2="432" gradientUnits="userSpaceOnUse">
      <stop stop-color="#147D67"/>
      <stop offset="1" stop-color="#32BFA0"/>
    </linearGradient>
    <filter id="softShadow" x="-20%" y="-20%" width="140%" height="150%" color-interpolation-filters="sRGB">
      <feDropShadow dx="0" dy="28" stdDeviation="28" flood-color="#0B5F4C" flood-opacity="0.18"/>
      <feDropShadow dx="0" dy="4" stdDeviation="8" flood-color="#0B5F4C" flood-opacity="0.10"/>
    </filter>
  </defs>
  <rect width="1024" height="1024" rx="248" fill="url(#bg)"/>
  <circle cx="512" cy="512" r="348" fill="#F7FFFB" opacity="0.72"/>
  <g filter="url(#softShadow)">
    <path fill="url(#upper)" d="M516 170c111 0 213 59 269 154 15 25 2 57-26 65l-156 46c-35 10-66-27-51-60l22-47c-19-8-39-12-60-12-83 0-155 61-170 142-5 29-29 51-59 51H184c-30 0-54-26-49-56 32-162 187-283 381-283Z"/>
    <path fill="url(#lower)" d="M508 854c-111 0-213-59-269-154-15-25-2-57 26-65l156-46c35-10 66 27 51 60l-22 47c19 8 39 12 60 12 83 0 155-61 170-142 5-29 29-51 59-51h101c30 0 54 26 49 56-32 162-187 283-381 283Z"/>
  </g>
  <g fill="none" stroke="#0A5C4D" stroke-linecap="round" stroke-linejoin="round" stroke-width="58">
    <path d="M512 276v210"/>
    <path d="m430 368 82-92 82 92"/>
    <path d="M512 748V538"/>
    <path d="m594 656-82 92-82-92"/>
  </g>
  <circle cx="512" cy="512" r="72" fill="#EFFFF7" stroke="#0A5C4D" stroke-width="34"/>
</svg>

